<?xml version="1.0" standalone="no"?>
<!DOCTYPE svg PUBLIC "-//W3C//DTD SVG 20010904//EN"
 "http://www.w3.org/TR/2001/REC-SVG-20010904/DTD/svg10.dtd">
<svg version="1.0" xmlns="http://www.w3.org/2000/svg"
 width="512.000000pt" height="512.000000pt" viewBox="0 0 512.000000 512.000000"
 preserveAspectRatio="xMidYMid meet">

<g transform="translate(0.000000,512.000000) scale(0.100000,-0.100000)"
fill="#000000" stroke="none">
<path d="M395 5106 c-196 -49 -343 -202 -386 -405 -6 -29 -8 -816 -7 -2171 l3
-2125 22 -58 c58 -154 173 -268 323 -319 l65 -23 2145 0 c2089 0 2147 1 2204
19 151 50 276 174 328 326 l23 65 0 2145 c0 2089 -1 2147 -19 2204 -49 148
-168 270 -322 328 l-59 23 -2135 2 c-1671 1 -2146 -1 -2185 -11z m3888 -1840
c67 -33 99 -105 83 -191 -10 -51 -73 -117 -144 -148 -61 -27 -189 -57 -246
-57 -32 0 -35 -3 -50 -47 -42 -134 -62 -298 -46 -383 18 -93 82 -132 139 -85
56 48 51 136 -13 212 -25 30 -27 36 -16 67 15 47 75 106 106 106 36 0 78 -49
94 -107 7 -26 19 -74 27 -105 17 -62 43 -98 73 -98 17 0 110 95 110 112 0 17
40 7 51 -13 27 -52 -20 -162 -83 -195 -31 -16 -121 -16 -159 0 -12 5 -23 -3
-39 -28 -59 -97 -253 -131 -380 -66 -40 21 -96 79 -110 115 l-9 23 -48 -25
c-40 -20 -59 -24 -113 -21 -64 4 -65 4 -124 -43 -74 -60 -128 -79 -227 -79
-123 0 -203 34 -258 111 l-28 38 -39 -40 c-21 -22 -68 -54 -104 -72 -59 -29
-73 -32 -160 -32 -79 0 -102 4 -136 22 -40 21 -87 68 -96 95 -3 8 -20 -1 -48
-25 -63 -54 -140 -89 -199 -90 -66 -3 -86 16 -115 106 -4 14 -12 10 -46 -27
-60 -65 -123 -89 -226 -84 -72 3 -87 7 -125 33 -25 18 -53 50 -67 78 l-25 47
-31 -21 c-17 -11 -70 -39 -117 -62 -83 -39 -86 -42 -98 -86 -18 -66 -85 -206
-122 -252 -94 -119 -256 -157 -415 -98 -87 33 -146 123 -129 200 13 60 127
129 335 205 58 21 106 38 107 39 2 1 14 68 28 150 29 170 88 404 138 548 l34
98 -31 17 c-46 25 -150 20 -299 -13 -116 -26 -129 -28 -143 -13 -53 52 108
150 291 178 134 20 295 -5 348 -54 45 -42 38 -122 -49 -564 -25 -128 -44 -236
-41 -239 3 -3 48 17 99 44 l92 48 22 76 c36 132 112 233 221 291 64 35 168 51
235 37 41 -9 52 -8 67 5 38 35 116 3 155 -63 l19 -33 -33 -67 c-31 -61 -34
-74 -38 -186 -4 -123 5 -175 31 -175 8 0 45 26 82 58 66 55 69 60 95 144 45
143 124 243 236 294 93 44 199 41 224 -6 16 -30 11 -93 -10 -127 -23 -39 -51
-42 -95 -13 -16 11 -38 20 -48 20 -28 0 -73 -53 -91 -106 -19 -57 -31 -163
-22 -198 9 -37 61 -66 116 -66 55 1 77 12 144 78 46 45 54 59 64 112 23 126
100 238 199 292 98 54 245 61 337 17 98 -46 85 -69 -43 -79 -60 -5 -106 -15
-135 -30 -116 -56 -185 -217 -138 -323 23 -53 55 -77 112 -84 38 -5 130 13
130 26 0 3 -9 12 -19 18 -11 7 -32 34 -47 59 -23 39 -28 60 -28 115 -1 59 3
72 29 110 43 61 86 81 162 77 69 -4 97 -22 119 -75 18 -42 18 -117 0 -176 -13
-45 -13 -47 5 -47 62 0 129 60 129 114 0 39 42 196 69 260 12 27 20 50 19 51
-2 1 -22 12 -44 25 -45 24 -69 61 -52 78 10 10 60 2 111 -17 24 -9 27 -6 62
53 70 120 176 218 265 245 49 14 138 8 183 -13z"/>
<path d="M4135 3132 c-36 -22 -112 -106 -139 -152 l-18 -32 33 7 c74 16 139
47 168 81 32 36 40 81 19 102 -16 16 -28 15 -63 -6z"/>
<path d="M1893 2773 c-73 -35 -158 -128 -178 -195 -28 -95 -14 -195 30 -212
55 -21 130 14 174 80 34 52 37 67 46 200 3 50 10 105 15 122 8 29 7 32 -13 31
-12 0 -46 -12 -74 -26z"/>
<path d="M3406 2645 c-21 -21 -20 -67 1 -108 l16 -32 13 30 c29 67 7 147 -30
110z"/>
<path d="M879 2111 c-153 -53 -176 -71 -149 -122 26 -48 142 -67 180 -29 33
33 87 156 78 179 -2 5 -51 -8 -109 -28z"/>
</g>
</svg>
